# Blender 4.2.2 LTS
# www.blender.org
mtllib futurista_blockout.mtl
o futurista_blockout
v -104.198952 9.006687 -2.645648
v -104.198952 4.538731 -2.645648
v -104.198952 9.006687 2.645648
v -104.198952 4.538731 2.645648
v -119.402504 9.006687 -2.645648
v -119.402504 4.538731 -2.645648
v -119.402504 9.006687 2.645648
v -119.402504 4.538731 2.645648
v -111.800728 4.538731 -2.645648
v -111.800728 9.006687 2.645648
v -111.800728 4.538731 2.645648
v -111.800728 9.006687 -2.645648
v -114.907501 9.006687 2.645648
v -119.402504 10.586987 2.645648
v -104.198952 10.586987 -2.645648
v -104.198952 10.586987 2.645648
v -119.402504 10.586987 -2.645648
v -114.907501 4.538731 -2.645648
v -111.800728 8.919157 2.938727
v -120.244606 8.919157 2.938727
v -111.800728 8.919157 -2.938727
v -103.356850 8.919157 -2.938727
v -103.356850 8.919157 2.938727
v -120.244606 8.919157 -2.938727
v -111.800728 10.674517 2.938727
v -120.244606 10.674517 2.938727
v -103.356850 10.674517 -2.938727
v -103.356850 10.674517 2.938727
v -120.244606 10.674517 -2.938727
v -111.800728 10.674517 -2.938727
v -114.907501 4.538731 2.645648
v -114.907501 9.006687 -2.645648
v -115.251663 8.919157 2.938727
v -115.251663 8.919157 -2.938727
v -115.251663 10.674517 2.938727
v -115.251663 10.674517 -2.938727
v -115.251663 13.005042 -2.938727
v -111.800728 13.005042 -2.938727
v -111.800728 13.005042 2.938727
v -115.251663 13.005042 2.938727
v -116.763092 13.005042 -3.691146
v -110.289291 13.005042 -3.691146
v -110.289291 13.005042 3.691146
v -116.763092 13.005042 3.691146
v -116.763092 14.413601 -3.691146
v -110.289291 14.413601 -3.691146
v -110.289291 14.413601 3.691146
v -116.763092 14.413601 3.691146
v -122.646431 13.005042 -3.691146
v -122.646431 13.005042 3.691147
v -122.646431 14.413601 -3.691146
v -122.646431 14.413601 3.691147
v -116.763092 16.599424 -3.691146
v -116.763092 16.599424 3.691146
v -116.763092 15.190865 3.691146
v -116.763092 15.190865 -3.691146
v -122.646431 16.599424 -3.691146
v -122.646431 16.599424 3.691147
v -122.646431 15.190865 3.691147
v -122.646431 15.190865 -3.691146
v -119.704758 13.005042 3.691146
v -119.704758 13.005042 -3.691146
v -119.704758 16.599424 3.691146
v -119.704758 15.190865 3.691146
v -119.704758 15.190865 -3.691146
v -119.704758 16.599424 -3.691146
v -116.763092 19.400724 -3.691146
v -116.763092 19.400724 3.691146
v -119.704758 19.400724 -3.691146
v -119.704758 19.400724 3.691146
v -110.316269 16.599424 -3.691147
v -110.316269 16.599424 3.691146
v -110.316269 19.400724 -3.691147
v -110.316269 19.400724 3.691146
v -107.999840 4.538731 2.645648
v -107.999840 9.006687 -2.645648
v -107.999840 4.538731 -2.645648
v -107.999840 9.006687 2.645648
v -107.578789 8.919157 -2.938727
v -107.578789 8.919157 2.938727
v -107.578789 10.674517 -2.938727
v -107.578789 10.674517 2.938727
v -107.578789 19.369473 2.938727
v -111.800728 19.369473 2.938727
v -111.800728 19.369473 -2.938727
v -107.578789 19.369473 -2.938727
v -113.539680 19.400724 -3.691146
v -113.539680 16.599424 -3.691146
v -113.539680 19.400724 3.691146
v -113.539680 16.599424 3.691146
v -116.763092 22.216120 -3.691146
v -116.763092 22.216120 3.691146
v -113.539680 22.216120 -3.691146
v -113.539680 22.216120 3.691146
v -110.316269 23.818436 -3.691147
v -110.316269 23.818436 3.691146
v -113.539680 23.818436 -3.691146
v -113.539680 23.818436 3.691146
v -107.578789 23.787186 2.938727
v -111.800728 23.787186 2.938727
v -111.800728 23.787186 -2.938727
v -107.578789 23.787186 -2.938727
v -103.356850 20.557104 -2.938727
v -103.356850 20.557104 2.938727
v -107.578789 20.557104 -2.938727
v -107.578789 20.557104 2.938727
v -103.356850 13.455587 2.938727
v -107.578789 13.455587 2.938727
v -107.578789 13.455587 -2.938727
v -103.356850 13.455587 -2.938727
v -100.130882 20.557104 -2.938727
v -100.130882 20.557104 2.938727
v -100.130882 13.455587 2.938727
v -100.130882 13.455587 -2.938727
v -103.356850 25.724012 -2.938727
v -103.356850 25.724012 2.938727
v -107.578789 25.724012 -2.938727
v -107.578789 25.724012 2.938727
v -100.946510 25.724014 -6.294209
v -100.946510 25.724014 6.294209
v -109.989128 25.724014 -6.294209
v -109.989128 25.724014 6.294209
v -100.946510 28.181448 -6.294209
v -100.946510 28.181448 6.294209
v -109.989128 28.181448 -6.294209
v -109.989128 28.181448 6.294209
v -103.356850 22.064119 2.938727
v -107.578789 22.064119 2.938727
v -103.356850 22.064119 -2.938727
v -107.578789 22.064119 -2.938727
v -103.356850 23.937635 2.938727
v -103.356850 23.937635 -2.938727
v -107.578789 23.937635 2.938727
v -107.578789 23.937635 -2.938727
v -101.655548 22.064119 -2.938727
v -101.655548 22.064119 2.938727
v -101.655548 23.937635 2.938727
v -101.655548 23.937635 -2.938727
v -104.555519 4.468972 -2.645648
v -104.555519 0.001016 -2.645648
v -104.555519 4.468972 2.645648
v -104.555519 0.001016 2.645648
v -118.199348 4.468972 -2.645648
v -118.199348 0.001016 -2.645648
v -118.199348 4.468972 2.645648
v -118.199348 0.001016 2.645648
v -112.908882 0.001016 -2.645648
v -112.908882 4.468972 2.645648
v -112.908882 0.001016 2.645648
v -112.908882 4.468972 -2.645648
v -104.555519 1.397253 -2.645648
v -118.199348 1.397253 2.645648
v -104.555519 1.397253 2.645648
v -118.199348 1.397253 -2.645648
v -112.908882 1.397253 -2.645648
v -112.908882 1.397253 2.645648
v -118.199348 3.666137 2.645648
v -104.555519 3.666137 -2.645648
v -104.555519 3.666137 2.645648
v -118.199348 3.666137 -2.645648
v -112.908882 3.666137 -2.645648
v -112.908882 3.666137 2.645648
v -110.576904 0.001016 2.645648
v -110.576904 4.468972 -2.645648
v -110.576904 0.001016 -2.645648
v -110.576904 4.468972 2.645648
v -110.576904 1.397253 2.645648
v -110.576904 1.397253 -2.645648
v -110.576904 3.666137 2.645648
v -110.576904 3.666137 -2.645648
v -106.943314 0.001016 2.645648
v -106.943314 4.468972 -2.645648
v -106.943314 1.397253 -2.645648
v -106.943314 3.666137 -2.645648
v -106.943314 0.001016 -2.645648
v -106.943314 4.468972 2.645648
v -106.943314 1.397253 2.645648
v -106.943314 3.666137 2.645648
v -106.943314 4.468972 3.328878
v -110.576904 4.468972 3.328878
v -106.943314 3.666137 3.328878
v -110.576904 3.666137 3.328878
v -104.790588 4.389935 2.645648
v -104.790588 3.745174 2.645648
v -106.708237 4.389935 2.645648
v -106.708237 3.745174 2.645648
v -104.790588 4.389935 2.323918
v -104.790588 3.745174 2.323918
v -106.708237 4.389935 2.323918
v -106.708237 3.745174 2.323918
v -116.388596 0.001016 -2.645648
v -116.388596 4.468972 2.645648
v -116.388596 0.001016 2.645648
v -116.388596 4.468972 -2.645648
v -116.388596 1.397253 -2.645648
v -116.388596 1.397253 2.645648
v -116.388596 3.666137 -2.645648
v -116.388596 3.666137 2.645648
v -112.086388 0.001016 -2.645648
v -112.086388 4.468972 2.645648
v -112.086388 1.397253 2.645648
v -112.086388 3.666137 2.645648
v -112.086388 0.001016 2.645648
v -112.086388 4.468972 -2.645648
v -112.086388 1.397253 -2.645648
v -112.086388 3.666137 -2.645648
v -118.199348 3.666137 2.965192
v -118.199348 4.468972 2.965192
v -116.388596 4.468972 2.965192
v -112.086388 4.468972 2.965192
v -112.908882 4.468972 2.965192
v -116.388596 0.001016 2.965192
v -112.908882 0.001016 2.965192
v -112.908882 1.397253 2.965192
v -118.199348 0.001016 2.965192
v -118.199348 1.397253 2.965192
v -112.908882 3.666137 2.965192
v -112.086388 1.397253 2.965192
v -116.388596 1.397253 2.965192
v -112.086388 3.666137 2.965192
v -116.388596 3.666137 2.965192
v -112.086388 0.001016 2.965192
v -110.576904 3.666137 2.179918
v -110.576904 1.397253 2.179918
v -110.576904 4.468972 2.179918
v -112.086388 4.468972 2.179918
v -112.086388 1.397253 2.179918
v -112.086388 3.666137 2.179918
v -108.749542 0.001016 -2.645648
v -108.749542 4.468972 2.645648
v -108.749542 1.397253 2.645648
v -108.749542 3.666137 2.645648
v -108.749542 0.001016 2.645648
v -108.749542 4.468972 -2.645648
v -108.749542 1.397253 -2.645648
v -108.749542 3.666137 -2.645648
v -108.749542 4.468972 3.328878
v -108.749542 3.666137 3.328878
v -108.749542 1.397253 3.222307
v -110.576904 1.397253 3.222307
v -110.576904 0.001016 3.222307
v -108.749542 0.001016 3.222307
v -106.943314 0.001016 3.222307
v -106.943314 1.397253 3.222307
vn 0.3287 -0.0000 0.9444
vn -0.0000 -0.0000 1.0000
vn -1.0000 -0.0000 -0.0000
vn -0.0000 -1.0000 -0.0000
vn 1.0000 -0.0000 -0.0000
vn -0.0000 -0.0000 -1.0000
vn -0.3287 -0.0000 -0.9444
vn -0.0000 -0.9582 0.2862
vn 0.3287 -0.0000 -0.9444
vn -0.0000 -0.9582 -0.2862
vn -0.0000 1.0000 -0.0000
vn 0.1034 -0.9946 -0.0000
vn -0.3287 -0.0000 0.9444
vn -0.1034 -0.9946 -0.0000
vt 0.625000 0.500000
vt 0.375000 0.926086
vt 0.625000 0.926086
vt 0.625000 1.000000
vt 0.375000 1.000000
vt 0.375000 0.000000
vt 0.625000 0.000000
vt 0.625000 0.250000
vt 0.375000 0.250000
vt 0.312500 0.500000
vt 0.375000 0.500000
vt 0.375000 0.750000
vt 0.312500 0.750000
vt 0.625000 0.750000
vt 0.375000 0.437500
vt 0.625000 0.437500
vt 0.375000 0.323914
vt 0.625000 0.323914
vt 0.625000 0.375000
vt 0.375000 0.375000
vt 0.198914 0.500000
vt 0.250000 0.500000
vt 0.250000 0.750000
vt 0.198914 0.750000
vt 0.375000 0.812500
vt 0.625000 0.812500
vt 0.625000 0.875000
vt 0.375000 0.875000
vt 0.625000 0.437500
vt 0.625000 0.812500
vt 0.625000 0.926086
vt 0.625000 0.323914
vt 0.625000 0.926086
vt 0.801086 0.500000
vt 0.875000 0.500000
vt 0.875000 0.750000
vt 0.801086 0.750000
vt 0.750000 0.500000
vt 0.750000 0.750000
vt 0.125000 0.500000
vt 0.125000 0.750000
vt 0.801086 0.500000
vt 0.801086 0.750000
vt 0.801086 0.500000
vt 0.801086 0.750000
vt 0.801086 0.500000
vt 0.687500 0.750000
vt 0.687500 0.500000
vt 0.687500 0.500000
vt 0.687500 0.750000
vt 0.841821 0.500000
vt 0.841821 0.750000
vt 0.453125 0.000000
vt 0.580078 0.000000
vt 0.580078 0.250000
vt 0.331248 0.500000
vt 0.331248 0.750000
vt 0.580078 0.500000
vt 0.580078 0.750000
vt 0.580078 0.456248
vt 0.625000 0.456248
vt 0.580078 0.283179
vt 0.625000 0.283179
vt 0.625000 0.346939
vt 0.580078 0.346939
vt 0.158179 0.500000
vt 0.221939 0.500000
vt 0.221939 0.750000
vt 0.158179 0.750000
vt 0.762990 0.500000
vt 0.778061 0.500000
vt 0.778061 0.750000
vt 0.762990 0.750000
vt 0.375000 0.283179
vt 0.453125 0.283179
vt 0.453125 0.346939
vt 0.375000 0.346939
vt 0.375000 0.456248
vt 0.453125 0.456248
vt 0.453125 0.500000
vt 0.453125 0.750000
vt 0.453125 0.250000
vt 0.580078 0.887990
vt 0.625000 0.887990
vt 0.453125 0.362010
vt 0.580078 0.362010
vt 0.580078 0.389668
vt 0.453125 0.389668
vt 0.453125 0.826848
vt 0.580078 0.826848
vt 0.580078 0.860332
vt 0.453125 0.860332
vt 0.375000 0.362010
vt 0.375000 0.389668
vt 0.701848 0.500000
vt 0.735332 0.500000
vt 0.735332 0.750000
vt 0.701848 0.750000
vt 0.625000 0.860332
vt 0.625000 0.362010
vt 0.625000 0.389668
vt 0.237010 0.500000
vt 0.264668 0.500000
vt 0.264668 0.750000
vt 0.237010 0.750000
vt 0.625000 0.793752
vt 0.580078 0.793752
vt 0.668752 0.500000
vt 0.668752 0.750000
vt 0.453125 0.793752
vt 0.375000 0.793752
vt 0.453125 0.423152
vt 0.580078 0.423152
vt 0.375000 0.423152
vt 0.625000 0.423152
vt 0.298152 0.500000
vt 0.298152 0.750000
vt 0.625000 0.826848
vt 0.701848 0.750000
vt 0.453125 0.903061
vt 0.580078 0.903061
vt 0.580078 0.966821
vt 0.453125 0.966821
vt 0.453125 0.887990
vt 0.375000 0.860332
vt 0.375000 0.887990
vt 0.625000 0.966821
vt 0.580078 1.000000
vt 0.625000 0.903061
vt 0.375000 0.903061
vt 0.375000 0.966821
vt 0.453125 1.000000
vt 0.375000 0.826848
s 0
usemtl Material.001
f 15/1/1 1/1/1 22/1/1 27/1/1
f 31/2/2 13/3/2 7/4/2 8/5/2
f 8/6/3 7/7/3 5/8/3 6/9/3
f 77/10/4 2/11/4 4/12/4 75/13/4
f 2/11/5 1/1/5 3/14/5 4/12/5
f 77/15/6 76/16/6 1/1/6 2/11/6
f 18/17/6 32/18/6 12/19/6 9/20/6
f 18/21/4 9/22/4 11/23/4 31/24/4
f 75/25/2 78/26/2 10/27/2 11/28/2
f 14/7/7 7/7/7 20/7/7 26/7/7
f 76/16/8 12/19/8 21/19/8 79/29/8
f 3/14/9 16/14/9 28/14/9 23/14/9
f 78/26/10 3/14/10 23/14/10 80/30/10
f 5/8/3 7/7/3 14/7/3 17/8/3
f 3/14/5 1/1/5 15/1/5 16/14/5
f 13/3/10 10/27/10 19/27/10 33/31/10
f 34/32/6 24/8/6 29/8/6 36/32/6
f 33/31/2 19/27/2 25/27/2 35/33/2
f 36/34/11 29/35/11 26/36/11 35/37/11
f 30/38/3 25/39/3 84/39/3 85/38/3
f 80/30/2 23/14/2 28/14/2 82/26/2
f 79/29/6 21/19/6 30/19/6 81/16/6
f 16/14/12 15/1/12 27/1/12 28/14/12
f 5/8/13 17/8/13 29/8/13 24/8/13
f 32/18/8 5/8/8 24/8/8 34/32/8
f 17/8/14 14/7/14 26/7/14 29/8/14
f 12/19/8 32/18/8 34/32/8 21/19/8
f 35/33/2 25/27/2 39/27/2 40/33/2
f 20/4/2 33/31/2 35/33/2 26/4/2
f 21/19/6 34/32/6 36/32/6 30/19/6
f 7/4/10 13/3/10 33/31/10 20/4/10
f 6/40/4 18/21/4 31/24/4 8/41/4
f 6/9/6 5/8/6 32/18/6 18/17/6
f 11/28/2 10/27/2 13/3/2 31/2/2
f 40/33/4 39/27/4 43/27/4 44/33/4
f 25/39/5 30/38/5 38/38/5 39/39/5
f 36/34/3 35/37/3 40/37/3 37/34/3
f 30/19/6 36/32/6 37/32/6 38/19/6
f 62/42/6 49/34/6 60/34/6 65/34/6
f 38/19/4 37/32/4 41/32/4 42/19/4
f 37/34/4 40/37/4 44/37/4 41/34/4
f 39/39/4 38/38/4 42/38/4 43/39/4
f 46/38/11 45/34/11 48/37/11 47/39/11
f 43/39/5 42/38/5 46/38/5 47/39/5
f 44/33/2 43/27/2 47/27/2 48/33/2
f 42/19/6 41/32/6 45/32/6 46/19/6
f 49/34/3 50/37/3 52/37/3 51/34/3
f 45/32/11 41/32/11 56/32/11 53/32/11
f 51/34/3 52/37/3 58/37/3 57/34/3
f 62/42/4 61/43/4 50/37/4 49/34/4
f 64/33/2 63/33/2 58/33/2 59/33/2
f 66/32/6 65/32/6 60/32/6 57/32/6
f 63/37/11 66/44/11 57/34/11 58/37/11
f 48/37/5 45/34/5 53/34/5 54/37/5
f 52/37/11 50/37/11 59/37/11 58/37/11
f 44/33/2 48/33/2 54/33/2 55/33/2
f 61/43/2 44/37/2 55/37/2 64/37/2
f 49/34/6 51/34/6 57/34/6 60/34/6
f 50/37/2 61/43/2 64/37/2 59/37/2
f 66/44/3 63/37/3 70/37/3 69/44/3
f 53/32/6 56/32/6 65/32/6 66/32/6
f 55/33/2 54/33/2 63/33/2 64/33/2
f 41/34/4 44/37/4 61/43/4 62/42/4
f 41/34/6 62/42/6 65/34/6 56/34/6
f 68/37/11 67/34/11 69/44/11 70/37/11
f 88/32/6 87/32/6 73/32/6 71/32/6
f 53/32/6 66/32/6 69/32/6 67/32/6
f 63/33/2 54/33/2 68/33/2 70/33/2
f 72/37/5 71/34/5 73/34/5 74/37/5
f 86/16/6 85/19/6 101/19/6 102/16/6
f 89/33/2 90/33/2 72/33/2 74/33/2
f 90/45/4 88/46/4 71/34/4 72/37/4
f 22/1/6 79/29/6 81/16/6 27/1/6
f 19/27/2 80/30/2 82/26/2 25/27/2
f 108/26/2 107/14/2 104/14/2 106/26/2
f 10/27/10 78/26/10 80/30/10 19/27/10
f 1/1/8 76/16/8 79/29/8 22/1/8
f 4/12/2 3/14/2 78/26/2 75/25/2
f 9/20/6 12/19/6 76/16/6 77/15/6
f 9/22/4 77/10/4 75/13/4 11/23/4
f 89/33/2 74/33/2 96/33/2 98/33/2
f 25/27/2 82/26/2 83/26/2 84/27/2
f 82/47/5 81/48/5 86/48/5 83/47/5
f 81/16/6 30/19/6 85/19/6 86/16/6
f 54/37/4 53/34/4 88/46/4 90/45/4
f 68/33/2 54/33/2 90/33/2 89/33/2
f 89/45/5 87/46/5 93/46/5 94/45/5
f 53/32/6 67/32/6 87/32/6 88/32/6
f 91/34/11 92/37/11 94/45/11 93/46/11
f 67/34/3 68/37/3 92/37/3 91/34/3
f 68/33/2 89/33/2 94/33/2 92/33/2
f 87/32/6 67/32/6 91/32/6 93/32/6
f 97/46/11 98/45/11 96/37/11 95/34/11
f 102/48/11 101/38/11 100/39/11 99/47/11
f 73/32/6 87/32/6 97/32/6 95/32/6
f 84/27/2 83/26/2 99/26/2 100/27/2
f 87/46/3 89/45/3 98/45/3 97/46/3
f 83/47/5 86/48/5 102/48/5 99/47/5
f 85/38/3 84/39/3 100/39/3 101/38/3
f 74/37/5 73/34/5 95/34/5 96/37/5
f 133/26/2 131/14/2 116/14/2 118/26/2
f 109/48/3 108/47/3 106/47/3 105/48/3
f 110/1/6 109/16/6 105/16/6 103/1/6
f 104/14/2 107/14/2 113/14/2 112/14/2
f 28/14/5 27/1/5 110/1/5 107/14/5
f 27/1/6 81/16/6 109/16/6 110/1/6
f 81/48/3 82/47/3 108/47/3 109/48/3
f 82/26/2 28/14/2 107/14/2 108/26/2
f 113/14/5 114/1/5 111/1/5 112/14/5
f 103/1/11 104/14/11 112/14/11 111/1/11
f 110/1/6 103/1/6 111/1/6 114/1/6
f 107/14/4 110/1/4 114/1/4 113/14/4
f 117/48/4 118/47/4 122/47/4 121/48/4
f 131/14/5 132/1/5 115/1/5 116/14/5
f 134/49/3 133/50/3 118/47/3 117/48/3
f 132/1/6 134/16/6 117/16/6 115/1/6
f 122/26/2 120/14/2 124/14/2 126/26/2
f 115/1/4 117/16/4 121/16/4 119/1/4
f 118/26/4 116/14/4 120/14/4 122/26/4
f 116/14/4 115/1/4 119/1/4 120/14/4
f 123/1/11 125/48/11 126/47/11 124/14/11
f 120/14/5 119/1/5 123/1/5 124/14/5
f 121/48/3 122/47/3 126/47/3 125/48/3
f 119/1/6 121/16/6 125/16/6 123/1/6
f 103/1/6 105/16/6 130/16/6 129/1/6
f 105/48/3 106/47/3 128/47/3 130/49/3
f 104/14/5 103/1/5 129/1/5 127/14/5
f 106/26/2 104/14/2 127/14/2 128/26/2
f 129/1/6 130/16/6 134/16/6 132/1/6
f 130/49/3 128/47/3 133/50/3 134/49/3
f 132/1/11 131/14/11 137/14/11 138/1/11
f 128/26/2 127/14/2 131/14/2 133/26/2
f 136/14/5 135/1/5 138/1/5 137/14/5
f 131/14/2 127/14/2 136/14/2 137/14/2
f 127/14/4 129/1/4 135/1/4 136/14/4
f 129/1/6 132/1/6 138/1/6 135/1/6
usemtl Material
f 194/51/11 143/35/11 145/36/11 192/52/11
f 152/53/3 146/6/3 215/6/3 216/53/3
f 157/54/3 145/7/3 143/8/3 160/55/3
f 175/56/4 140/11/4 142/12/4 171/57/4
f 158/58/5 139/1/5 141/14/5 159/59/5
f 174/60/6 172/61/6 139/1/6 158/58/6
f 197/62/6 194/63/6 150/64/6 161/65/6
f 191/66/4 147/67/4 149/68/4 193/69/4
f 192/52/11 145/36/11 208/36/11 209/52/11
f 204/70/11 150/71/11 148/72/11 200/73/11
f 146/41/4 193/69/4 212/69/4 215/41/4
f 191/74/6 195/75/6 155/76/6 147/77/6
f 175/78/6 173/79/6 151/80/6 140/11/6
f 140/11/5 151/80/5 153/81/5 142/12/5
f 146/6/3 152/53/3 154/82/3 144/9/3
f 200/73/11 148/72/11 211/72/11 210/73/11
f 202/83/5 200/84/5 210/84/5 220/83/5
f 195/75/6 197/62/6 161/65/6 155/76/6
f 173/79/6 174/60/6 158/58/6 151/80/6
f 151/80/5 158/58/5 159/59/5 153/81/5
f 152/53/3 157/54/3 160/55/3 154/82/3
f 148/72/11 192/52/11 209/52/11 211/72/11
f 205/85/6 206/86/6 170/87/6 168/88/6
f 231/89/2 232/90/2 169/91/2 167/92/2
f 199/93/6 205/85/6 168/88/6 165/94/6
f 231/89/11 167/92/11 240/92/11 239/89/11
f 234/95/11 164/96/11 166/97/11 230/98/11
f 166/99/3 169/91/3 182/91/3 180/99/3
f 206/86/6 204/100/6 164/101/6 170/87/6
f 199/102/4 165/103/4 163/104/4 203/105/4
f 176/106/2 178/107/2 186/107/2 185/106/2
f 139/1/11 172/108/11 176/109/11 141/14/11
f 142/12/2 153/81/2 177/110/2 171/111/2
f 153/81/2 159/59/2 178/107/2 177/110/2
f 235/112/6 236/113/6 174/60/6 173/79/6
f 229/114/6 235/112/6 173/79/6 175/78/6
f 236/113/6 234/115/6 172/61/6 174/60/6
f 229/116/4 175/56/4 171/57/4 233/117/4
f 238/90/2 237/118/2 180/99/2 182/91/2
f 178/107/5 176/106/5 179/106/5 181/107/5
f 230/98/11 166/97/11 180/97/11 237/119/11
f 232/90/4 178/107/4 181/107/4 238/90/4
f 186/107/11 184/59/11 188/59/11 190/107/11
f 159/59/2 141/14/2 183/14/2 184/59/2
f 178/107/2 159/59/2 184/59/2 186/107/2
f 141/14/2 176/109/2 185/109/2 183/14/2
f 188/59/2 187/14/2 189/106/2 190/107/2
f 184/59/3 183/14/3 187/14/3 188/59/3
f 185/106/5 186/107/5 190/107/5 189/106/5
f 183/14/4 185/109/4 189/109/4 187/14/4
f 156/120/2 162/121/2 198/122/2 196/123/2
f 154/82/6 160/55/6 197/62/6 195/75/6
f 196/123/5 198/122/5 221/122/5 219/123/5
f 144/9/6 154/82/6 195/75/6 191/74/6
f 144/40/4 191/66/4 193/69/4 146/41/4
f 160/55/6 143/8/6 194/63/6 197/62/6
f 198/122/4 162/121/4 217/121/4 221/122/4
f 150/71/11 194/51/11 192/52/11 148/72/11
f 147/67/4 199/102/4 203/105/4 149/68/4
f 161/65/6 150/64/6 204/100/6 206/86/6
f 147/77/6 155/76/6 205/85/6 199/93/6
f 155/76/6 161/65/6 206/86/6 205/85/6
f 201/124/11 167/92/11 224/92/11 227/124/11
f 163/125/2 167/92/2 201/124/2 203/126/2
f 164/96/11 204/70/11 200/73/11 166/97/11
f 200/84/5 202/83/5 228/83/5 226/84/5
f 221/122/2 209/127/2 208/4/2 207/128/2
f 220/83/2 210/84/2 211/129/2 217/121/2
f 222/126/2 218/124/2 214/120/2 213/130/2
f 212/131/2 219/123/2 216/132/2 215/5/2
f 218/124/2 220/83/2 217/121/2 214/120/2
f 219/123/2 221/122/2 207/128/2 216/132/2
f 213/130/2 214/120/2 219/123/2 212/131/2
f 217/121/2 211/129/2 209/127/2 221/122/2
f 193/69/4 149/68/4 213/68/4 212/69/4
f 156/120/11 196/123/11 219/123/11 214/120/11
f 149/68/4 203/105/4 222/105/4 213/68/4
f 201/124/5 202/83/5 220/83/5 218/124/5
f 157/54/3 152/53/3 216/53/3 207/54/3
f 162/121/3 156/120/3 214/120/3 217/121/3
f 145/7/3 157/54/3 207/54/3 208/7/3
f 203/126/5 201/124/5 218/124/5 222/126/5
f 224/92/2 223/91/2 228/83/2 227/124/2
f 223/91/2 225/99/2 226/84/2 228/83/2
f 169/91/3 166/99/3 225/99/3 223/91/3
f 167/92/3 169/91/3 223/91/3 224/92/3
f 202/83/5 201/124/5 227/124/5 228/83/5
f 166/97/4 200/73/4 226/73/4 225/97/4
f 169/91/4 232/90/4 238/90/4 182/91/4
f 176/109/11 230/98/11 237/119/11 179/109/11
f 181/107/2 179/106/2 237/118/2 238/90/2
f 165/103/4 229/116/4 233/117/4 163/104/4
f 170/87/6 164/101/6 234/115/6 236/113/6
f 165/94/6 168/88/6 235/112/6 229/114/6
f 168/88/6 170/87/6 236/113/6 235/112/6
f 172/108/11 234/95/11 230/98/11 176/109/11
f 163/104/4 233/117/4 242/117/4 241/104/4
f 177/110/2 178/107/2 232/90/2 231/89/2
f 242/133/2 239/89/2 240/92/2 241/125/2
f 243/111/2 244/110/2 239/89/2 242/133/2
f 171/111/5 177/110/5 244/110/5 243/111/5
f 177/110/11 231/89/11 239/89/11 244/110/11
f 167/92/3 163/125/3 241/125/3 240/92/3
f 233/117/4 171/57/4 243/57/4 242/117/4
